<?xml version="1.0" encoding="utf-8" standalone="no"?>
<!DOCTYPE svg PUBLIC "-//W3C//DTD SVG 1.1//EN"
  "http://www.w3.org/Graphics/SVG/1.1/DTD/svg11.dtd">
<svg xmlns:xlink="http://www.w3.org/1999/xlink" width="800.39952pt" height="310.79952pt" viewBox="0 0 800.39952 310.79952" xmlns="http://www.w3.org/2000/svg" version="1.1">
 <metadata>
  <rdf:RDF xmlns:dc="http://purl.org/dc/elements/1.1/" xmlns:cc="http://creativecommons.org/ns#" xmlns:rdf="http://www.w3.org/1999/02/22-rdf-syntax-ns#">
   <cc:Work>
    <dc:type rdf:resource="http://purl.org/dc/dcmitype/StillImage"/>
    <dc:date>2026-05-04T18:47:32.937834</dc:date>
    <dc:format>image/svg+xml</dc:format>
    <dc:creator>
     <cc:Agent>
      <dc:title>Matplotlib v3.5.1, https://matplotlib.org/</dc:title>
     </cc:Agent>
    </dc:creator>
   </cc:Work>
  </rdf:RDF>
 </metadata>
 <defs>
  <style type="text/css">*{stroke-linejoin: round; stroke-linecap: butt}</style>
 </defs>
 <g id="figure_1">
  <g id="patch_1">
   <path d="M 0 310.79952 
L 800.39952 310.79952 
L 800.39952 0 
L 0 0 
z
" style="fill: #ffffff"/>
  </g>
  <g id="axes_1">
   <g id="patch_2">
    <path d="M 40.603125 286.921395 
L 396.23976 286.921395 
L 396.23976 38.964542 
L 40.603125 38.964542 
z
" style="fill: #ffffff"/>
   </g>
   <g id="patch_3">
    <path d="M 56.768427 286.921395 
L 71.792975 286.921395 
L 71.792975 260.784795 
L 56.768427 260.784795 
z
" clip-path="url(#p45dc8baef5)" style="fill: #888888"/>
   </g>
   <g id="patch_4">
    <path d="M 112.414904 286.921395 
L 127.439452 286.921395 
L 127.439452 235.145892 
L 112.414904 235.145892 
z
" clip-path="url(#p45dc8baef5)" style="fill: #888888"/>
   </g>
   <g id="patch_5">
    <path d="M 168.061381 286.921395 
L 183.08593 286.921395 
L 183.08593 184.818232 
L 168.061381 184.818232 
z
" clip-path="url(#p45dc8baef5)" style="fill: #888888"/>
   </g>
   <g id="patch_6">
    <path d="M 223.707858 286.921395 
L 238.732407 286.921395 
L 238.732407 182.194015 
L 223.707858 182.194015 
z
" clip-path="url(#p45dc8baef5)" style="fill: #888888"/>
   </g>
   <g id="patch_7">
    <path d="M 279.354335 286.921395 
L 294.378884 286.921395 
L 294.378884 151.231268 
L 279.354335 151.231268 
z
" clip-path="url(#p45dc8baef5)" style="fill: #888888"/>
   </g>
   <g id="patch_8">
    <path d="M 335.000812 286.921395 
L 350.025361 286.921395 
L 350.025361 50.772012 
L 335.000812 50.772012 
z
" clip-path="url(#p45dc8baef5)" style="fill: #888888"/>
   </g>
   <g id="patch_9">
    <path d="M 71.792975 286.921395 
L 86.817524 286.921395 
L 86.817524 262.489028 
L 71.792975 262.489028 
z
" clip-path="url(#p45dc8baef5)" style="fill: #1f77b4"/>
   </g>
   <g id="patch_10">
    <path d="M 127.439452 286.921395 
L 142.464001 286.921395 
L 142.464001 246.773888 
L 127.439452 246.773888 
z
" clip-path="url(#p45dc8baef5)" style="fill: #1f77b4"/>
   </g>
   <g id="patch_11">
    <path d="M 183.08593 286.921395 
L 198.110478 286.921395 
L 198.110478 179.207837 
L 183.08593 179.207837 
z
" clip-path="url(#p45dc8baef5)" style="fill: #1f77b4"/>
   </g>
   <g id="patch_12">
    <path d="M 238.732407 286.921395 
L 253.756955 286.921395 
L 253.756955 194.259381 
L 238.732407 194.259381 
z
" clip-path="url(#p45dc8baef5)" style="fill: #1f77b4"/>
   </g>
   <g id="patch_13">
    <path d="M 294.378884 286.921395 
L 309.403433 286.921395 
L 309.403433 192.223351 
L 294.378884 192.223351 
z
" clip-path="url(#p45dc8baef5)" style="fill: #1f77b4"/>
   </g>
   <g id="patch_14">
    <path d="M 350.025361 286.921395 
L 365.04991 286.921395 
L 365.04991 89.230367 
L 350.025361 89.230367 
z
" clip-path="url(#p45dc8baef5)" style="fill: #1f77b4"/>
   </g>
   <g id="patch_15">
    <path d="M 86.817524 286.921395 
L 101.842073 286.921395 
L 101.842073 263.65032 
L 86.817524 263.65032 
z
" clip-path="url(#p45dc8baef5)" style="fill: #2ca02c"/>
   </g>
   <g id="patch_16">
    <path d="M 142.464001 286.921395 
L 157.48855 286.921395 
L 157.48855 246.924705 
L 142.464001 246.924705 
z
" clip-path="url(#p45dc8baef5)" style="fill: #2ca02c"/>
   </g>
   <g id="patch_17">
    <path d="M 198.110478 286.921395 
L 213.135027 286.921395 
L 213.135027 187.170979 
L 198.110478 187.170979 
z
" clip-path="url(#p45dc8baef5)" style="fill: #2ca02c"/>
   </g>
   <g id="patch_18">
    <path d="M 253.756955 286.921395 
L 268.781504 286.921395 
L 268.781504 200.246819 
L 253.756955 200.246819 
z
" clip-path="url(#p45dc8baef5)" style="fill: #2ca02c"/>
   </g>
   <g id="patch_19">
    <path d="M 309.403433 286.921395 
L 324.427981 286.921395 
L 324.427981 193.776767 
L 309.403433 193.776767 
z
" clip-path="url(#p45dc8baef5)" style="fill: #2ca02c"/>
   </g>
   <g id="patch_20">
    <path d="M 365.04991 286.921395 
L 380.074458 286.921395 
L 380.074458 95.79091 
L 365.04991 95.79091 
z
" clip-path="url(#p45dc8baef5)" style="fill: #2ca02c"/>
   </g>
   <g id="matplotlib.axis_1">
    <g id="xtick_1">
     <g id="line2d_1">
      <defs>
       <path id="m5328c67727" d="M 0 0 
L 0 3.5 
" style="stroke: #000000; stroke-width: 0.8"/>
      </defs>
      <g>
       <use xlink:href="#m5328c67727" x="79.30525" y="286.921395" style="stroke: #000000; stroke-width: 0.8"/>
      </g>
     </g>
     <g id="text_1">
      <!-- tc -->
      <g transform="translate(74.595875 301.519833)scale(0.1 -0.1)">
       <defs>
        <path id="DejaVuSans-74" d="M 1172 4494 
L 1172 3500 
L 2356 3500 
L 2356 3053 
L 1172 3053 
L 1172 1153 
Q 1172 725 1289 603 
Q 1406 481 1766 481 
L 2356 481 
L 2356 0 
L 1766 0 
Q 1100 0 847 248 
Q 594 497 594 1153 
L 594 3053 
L 172 3053 
L 172 3500 
L 594 3500 
L 594 4494 
L 1172 4494 
z
" transform="scale(0.015625)"/>
        <path id="DejaVuSans-63" d="M 3122 3366 
L 3122 2828 
Q 2878 2963 2633 3030 
Q 2388 3097 2138 3097 
Q 1578 3097 1268 2742 
Q 959 2388 959 1747 
Q 959 1106 1268 751 
Q 1578 397 2138 397 
Q 2388 397 2633 464 
Q 2878 531 3122 666 
L 3122 134 
Q 2881 22 2623 -34 
Q 2366 -91 2075 -91 
Q 1284 -91 818 406 
Q 353 903 353 1747 
Q 353 2603 823 3093 
Q 1294 3584 2113 3584 
Q 2378 3584 2631 3529 
Q 2884 3475 3122 3366 
z
" transform="scale(0.015625)"/>
       </defs>
       <use xlink:href="#DejaVuSans-74"/>
       <use xlink:href="#DejaVuSans-63" x="39.208984"/>
      </g>
     </g>
    </g>
    <g id="xtick_2">
     <g id="line2d_2">
      <g>
       <use xlink:href="#m5328c67727" x="134.951727" y="286.921395" style="stroke: #000000; stroke-width: 0.8"/>
      </g>
     </g>
     <g id="text_2">
      <!-- sg -->
      <g transform="translate(129.172821 301.519833)scale(0.1 -0.1)">
       <defs>
        <path id="DejaVuSans-73" d="M 2834 3397 
L 2834 2853 
Q 2591 2978 2328 3040 
Q 2066 3103 1784 3103 
Q 1356 3103 1142 2972 
Q 928 2841 928 2578 
Q 928 2378 1081 2264 
Q 1234 2150 1697 2047 
L 1894 2003 
Q 2506 1872 2764 1633 
Q 3022 1394 3022 966 
Q 3022 478 2636 193 
Q 2250 -91 1575 -91 
Q 1294 -91 989 -36 
Q 684 19 347 128 
L 347 722 
Q 666 556 975 473 
Q 1284 391 1588 391 
Q 1994 391 2212 530 
Q 2431 669 2431 922 
Q 2431 1156 2273 1281 
Q 2116 1406 1581 1522 
L 1381 1569 
Q 847 1681 609 1914 
Q 372 2147 372 2553 
Q 372 3047 722 3315 
Q 1072 3584 1716 3584 
Q 2034 3584 2315 3537 
Q 2597 3491 2834 3397 
z
" transform="scale(0.015625)"/>
        <path id="DejaVuSans-67" d="M 2906 1791 
Q 2906 2416 2648 2759 
Q 2391 3103 1925 3103 
Q 1463 3103 1205 2759 
Q 947 2416 947 1791 
Q 947 1169 1205 825 
Q 1463 481 1925 481 
Q 2391 481 2648 825 
Q 2906 1169 2906 1791 
z
M 3481 434 
Q 3481 -459 3084 -895 
Q 2688 -1331 1869 -1331 
Q 1566 -1331 1297 -1286 
Q 1028 -1241 775 -1147 
L 775 -588 
Q 1028 -725 1275 -790 
Q 1522 -856 1778 -856 
Q 2344 -856 2625 -561 
Q 2906 -266 2906 331 
L 2906 616 
Q 2728 306 2450 153 
Q 2172 0 1784 0 
Q 1141 0 747 490 
Q 353 981 353 1791 
Q 353 2603 747 3093 
Q 1141 3584 1784 3584 
Q 2172 3584 2450 3431 
Q 2728 3278 2906 2969 
L 2906 3500 
L 3481 3500 
L 3481 434 
z
" transform="scale(0.015625)"/>
       </defs>
       <use xlink:href="#DejaVuSans-73"/>
       <use xlink:href="#DejaVuSans-67" x="52.099609"/>
      </g>
     </g>
    </g>
    <g id="xtick_3">
     <g id="line2d_3">
      <g>
       <use xlink:href="#m5328c67727" x="190.598204" y="286.921395" style="stroke: #000000; stroke-width: 0.8"/>
      </g>
     </g>
     <g id="text_3">
      <!-- cc -->
      <g transform="translate(185.099766 301.519833)scale(0.1 -0.1)">
       <use xlink:href="#DejaVuSans-63"/>
       <use xlink:href="#DejaVuSans-63" x="54.980469"/>
      </g>
     </g>
    </g>
    <g id="xtick_4">
     <g id="line2d_4">
      <g>
       <use xlink:href="#m5328c67727" x="246.244681" y="286.921395" style="stroke: #000000; stroke-width: 0.8"/>
      </g>
     </g>
     <g id="text_4">
      <!-- crdt -->
      <g transform="translate(236.393119 301.519833)scale(0.1 -0.1)">
       <defs>
        <path id="DejaVuSans-72" d="M 2631 2963 
Q 2534 3019 2420 3045 
Q 2306 3072 2169 3072 
Q 1681 3072 1420 2755 
Q 1159 2438 1159 1844 
L 1159 0 
L 581 0 
L 581 3500 
L 1159 3500 
L 1159 2956 
Q 1341 3275 1631 3429 
Q 1922 3584 2338 3584 
Q 2397 3584 2469 3576 
Q 2541 3569 2628 3553 
L 2631 2963 
z
" transform="scale(0.015625)"/>
        <path id="DejaVuSans-64" d="M 2906 2969 
L 2906 4863 
L 3481 4863 
L 3481 0 
L 2906 0 
L 2906 525 
Q 2725 213 2448 61 
Q 2172 -91 1784 -91 
Q 1150 -91 751 415 
Q 353 922 353 1747 
Q 353 2572 751 3078 
Q 1150 3584 1784 3584 
Q 2172 3584 2448 3432 
Q 2725 3281 2906 2969 
z
M 947 1747 
Q 947 1113 1208 752 
Q 1469 391 1925 391 
Q 2381 391 2643 752 
Q 2906 1113 2906 1747 
Q 2906 2381 2643 2742 
Q 2381 3103 1925 3103 
Q 1469 3103 1208 2742 
Q 947 2381 947 1747 
z
" transform="scale(0.015625)"/>
       </defs>
       <use xlink:href="#DejaVuSans-63"/>
       <use xlink:href="#DejaVuSans-72" x="54.980469"/>
       <use xlink:href="#DejaVuSans-64" x="94.34375"/>
       <use xlink:href="#DejaVuSans-74" x="157.820312"/>
      </g>
     </g>
    </g>
    <g id="xtick_5">
     <g id="line2d_5">
      <g>
       <use xlink:href="#m5328c67727" x="301.891158" y="286.921395" style="stroke: #000000; stroke-width: 0.8"/>
      </g>
     </g>
     <g id="text_5">
      <!-- galen -->
      <g transform="translate(288.018502 301.519833)scale(0.1 -0.1)">
       <defs>
        <path id="DejaVuSans-61" d="M 2194 1759 
Q 1497 1759 1228 1600 
Q 959 1441 959 1056 
Q 959 750 1161 570 
Q 1363 391 1709 391 
Q 2188 391 2477 730 
Q 2766 1069 2766 1631 
L 2766 1759 
L 2194 1759 
z
M 3341 1997 
L 3341 0 
L 2766 0 
L 2766 531 
Q 2569 213 2275 61 
Q 1981 -91 1556 -91 
Q 1019 -91 701 211 
Q 384 513 384 1019 
Q 384 1609 779 1909 
Q 1175 2209 1959 2209 
L 2766 2209 
L 2766 2266 
Q 2766 2663 2505 2880 
Q 2244 3097 1772 3097 
Q 1472 3097 1187 3025 
Q 903 2953 641 2809 
L 641 3341 
Q 956 3463 1253 3523 
Q 1550 3584 1831 3584 
Q 2591 3584 2966 3190 
Q 3341 2797 3341 1997 
z
" transform="scale(0.015625)"/>
        <path id="DejaVuSans-6c" d="M 603 4863 
L 1178 4863 
L 1178 0 
L 603 0 
L 603 4863 
z
" transform="scale(0.015625)"/>
        <path id="DejaVuSans-65" d="M 3597 1894 
L 3597 1613 
L 953 1613 
Q 991 1019 1311 708 
Q 1631 397 2203 397 
Q 2534 397 2845 478 
Q 3156 559 3463 722 
L 3463 178 
Q 3153 47 2828 -22 
Q 2503 -91 2169 -91 
Q 1331 -91 842 396 
Q 353 884 353 1716 
Q 353 2575 817 3079 
Q 1281 3584 2069 3584 
Q 2775 3584 3186 3129 
Q 3597 2675 3597 1894 
z
M 3022 2063 
Q 3016 2534 2758 2815 
Q 2500 3097 2075 3097 
Q 1594 3097 1305 2825 
Q 1016 2553 972 2059 
L 3022 2063 
z
" transform="scale(0.015625)"/>
        <path id="DejaVuSans-6e" d="M 3513 2113 
L 3513 0 
L 2938 0 
L 2938 2094 
Q 2938 2591 2744 2837 
Q 2550 3084 2163 3084 
Q 1697 3084 1428 2787 
Q 1159 2491 1159 1978 
L 1159 0 
L 581 0 
L 581 3500 
L 1159 3500 
L 1159 2956 
Q 1366 3272 1645 3428 
Q 1925 3584 2291 3584 
Q 2894 3584 3203 3211 
Q 3513 2838 3513 2113 
z
" transform="scale(0.015625)"/>
       </defs>
       <use xlink:href="#DejaVuSans-67"/>
       <use xlink:href="#DejaVuSans-61" x="63.476562"/>
       <use xlink:href="#DejaVuSans-6c" x="124.755859"/>
       <use xlink:href="#DejaVuSans-65" x="152.539062"/>
       <use xlink:href="#DejaVuSans-6e" x="214.0625"/>
      </g>
     </g>
    </g>
    <g id="xtick_6">
     <g id="line2d_6">
      <g>
       <use xlink:href="#m5328c67727" x="357.537635" y="286.921395" style="stroke: #000000; stroke-width: 0.8"/>
      </g>
     </g>
     <g id="text_6">
      <!-- cspa -->
      <g transform="translate(345.945448 301.519833)scale(0.1 -0.1)">
       <defs>
        <path id="DejaVuSans-70" d="M 1159 525 
L 1159 -1331 
L 581 -1331 
L 581 3500 
L 1159 3500 
L 1159 2969 
Q 1341 3281 1617 3432 
Q 1894 3584 2278 3584 
Q 2916 3584 3314 3078 
Q 3713 2572 3713 1747 
Q 3713 922 3314 415 
Q 2916 -91 2278 -91 
Q 1894 -91 1617 61 
Q 1341 213 1159 525 
z
M 3116 1747 
Q 3116 2381 2855 2742 
Q 2594 3103 2138 3103 
Q 1681 3103 1420 2742 
Q 1159 2381 1159 1747 
Q 1159 1113 1420 752 
Q 1681 391 2138 391 
Q 2594 391 2855 752 
Q 3116 1113 3116 1747 
z
" transform="scale(0.015625)"/>
       </defs>
       <use xlink:href="#DejaVuSans-63"/>
       <use xlink:href="#DejaVuSans-73" x="54.980469"/>
       <use xlink:href="#DejaVuSans-70" x="107.080078"/>
       <use xlink:href="#DejaVuSans-61" x="170.556641"/>
      </g>
     </g>
    </g>
   </g>
   <g id="matplotlib.axis_2">
    <g id="ytick_1">
     <g id="line2d_7">
      <path d="M 40.603125 286.921395 
L 396.23976 286.921395 
" clip-path="url(#p45dc8baef5)" style="fill: none; stroke-dasharray: 0.5,0.825; stroke-dashoffset: 0; stroke: #b0b0b0; stroke-opacity: 0.6; stroke-width: 0.5"/>
     </g>
     <g id="line2d_8">
      <defs>
       <path id="mee74c68519" d="M 0 0 
L -3.5 0 
" style="stroke: #000000; stroke-width: 0.8"/>
      </defs>
      <g>
       <use xlink:href="#mee74c68519" x="40.603125" y="286.921395" style="stroke: #000000; stroke-width: 0.8"/>
      </g>
     </g>
     <g id="text_7">
      <!-- 0 -->
      <g transform="translate(27.240625 290.720614)scale(0.1 -0.1)">
       <defs>
        <path id="DejaVuSans-30" d="M 2034 4250 
Q 1547 4250 1301 3770 
Q 1056 3291 1056 2328 
Q 1056 1369 1301 889 
Q 1547 409 2034 409 
Q 2525 409 2770 889 
Q 3016 1369 3016 2328 
Q 3016 3291 2770 3770 
Q 2525 4250 2034 4250 
z
M 2034 4750 
Q 2819 4750 3233 4129 
Q 3647 3509 3647 2328 
Q 3647 1150 3233 529 
Q 2819 -91 2034 -91 
Q 1250 -91 836 529 
Q 422 1150 422 2328 
Q 422 3509 836 4129 
Q 1250 4750 2034 4750 
z
" transform="scale(0.015625)"/>
       </defs>
       <use xlink:href="#DejaVuSans-30"/>
      </g>
     </g>
    </g>
    <g id="ytick_2">
     <g id="line2d_9">
      <path d="M 40.603125 256.757979 
L 396.23976 256.757979 
" clip-path="url(#p45dc8baef5)" style="fill: none; stroke-dasharray: 0.5,0.825; stroke-dashoffset: 0; stroke: #b0b0b0; stroke-opacity: 0.6; stroke-width: 0.5"/>
     </g>
     <g id="line2d_10">
      <g>
       <use xlink:href="#mee74c68519" x="40.603125" y="256.757979" style="stroke: #000000; stroke-width: 0.8"/>
      </g>
     </g>
     <g id="text_8">
      <!-- 2 -->
      <g transform="translate(27.240625 260.557198)scale(0.1 -0.1)">
       <defs>
        <path id="DejaVuSans-32" d="M 1228 531 
L 3431 531 
L 3431 0 
L 469 0 
L 469 531 
Q 828 903 1448 1529 
Q 2069 2156 2228 2338 
Q 2531 2678 2651 2914 
Q 2772 3150 2772 3378 
Q 2772 3750 2511 3984 
Q 2250 4219 1831 4219 
Q 1534 4219 1204 4116 
Q 875 4013 500 3803 
L 500 4441 
Q 881 4594 1212 4672 
Q 1544 4750 1819 4750 
Q 2544 4750 2975 4387 
Q 3406 4025 3406 3419 
Q 3406 3131 3298 2873 
Q 3191 2616 2906 2266 
Q 2828 2175 2409 1742 
Q 1991 1309 1228 531 
z
" transform="scale(0.015625)"/>
       </defs>
       <use xlink:href="#DejaVuSans-32"/>
      </g>
     </g>
    </g>
    <g id="ytick_3">
     <g id="line2d_11">
      <path d="M 40.603125 226.594563 
L 396.23976 226.594563 
" clip-path="url(#p45dc8baef5)" style="fill: none; stroke-dasharray: 0.5,0.825; stroke-dashoffset: 0; stroke: #b0b0b0; stroke-opacity: 0.6; stroke-width: 0.5"/>
     </g>
     <g id="line2d_12">
      <g>
       <use xlink:href="#mee74c68519" x="40.603125" y="226.594563" style="stroke: #000000; stroke-width: 0.8"/>
      </g>
     </g>
     <g id="text_9">
      <!-- 4 -->
      <g transform="translate(27.240625 230.393782)scale(0.1 -0.1)">
       <defs>
        <path id="DejaVuSans-34" d="M 2419 4116 
L 825 1625 
L 2419 1625 
L 2419 4116 
z
M 2253 4666 
L 3047 4666 
L 3047 1625 
L 3713 1625 
L 3713 1100 
L 3047 1100 
L 3047 0 
L 2419 0 
L 2419 1100 
L 313 1100 
L 313 1709 
L 2253 4666 
z
" transform="scale(0.015625)"/>
       </defs>
       <use xlink:href="#DejaVuSans-34"/>
      </g>
     </g>
    </g>
    <g id="ytick_4">
     <g id="line2d_13">
      <path d="M 40.603125 196.431147 
L 396.23976 196.431147 
" clip-path="url(#p45dc8baef5)" style="fill: none; stroke-dasharray: 0.5,0.825; stroke-dashoffset: 0; stroke: #b0b0b0; stroke-opacity: 0.6; stroke-width: 0.5"/>
     </g>
     <g id="line2d_14">
      <g>
       <use xlink:href="#mee74c68519" x="40.603125" y="196.431147" style="stroke: #000000; stroke-width: 0.8"/>
      </g>
     </g>
     <g id="text_10">
      <!-- 6 -->
      <g transform="translate(27.240625 200.230366)scale(0.1 -0.1)">
       <defs>
        <path id="DejaVuSans-36" d="M 2113 2584 
Q 1688 2584 1439 2293 
Q 1191 2003 1191 1497 
Q 1191 994 1439 701 
Q 1688 409 2113 409 
Q 2538 409 2786 701 
Q 3034 994 3034 1497 
Q 3034 2003 2786 2293 
Q 2538 2584 2113 2584 
z
M 3366 4563 
L 3366 3988 
Q 3128 4100 2886 4159 
Q 2644 4219 2406 4219 
Q 1781 4219 1451 3797 
Q 1122 3375 1075 2522 
Q 1259 2794 1537 2939 
Q 1816 3084 2150 3084 
Q 2853 3084 3261 2657 
Q 3669 2231 3669 1497 
Q 3669 778 3244 343 
Q 2819 -91 2113 -91 
Q 1303 -91 875 529 
Q 447 1150 447 2328 
Q 447 3434 972 4092 
Q 1497 4750 2381 4750 
Q 2619 4750 2861 4703 
Q 3103 4656 3366 4563 
z
" transform="scale(0.015625)"/>
       </defs>
       <use xlink:href="#DejaVuSans-36"/>
      </g>
     </g>
    </g>
    <g id="ytick_5">
     <g id="line2d_15">
      <path d="M 40.603125 166.267731 
L 396.23976 166.267731 
" clip-path="url(#p45dc8baef5)" style="fill: none; stroke-dasharray: 0.5,0.825; stroke-dashoffset: 0; stroke: #b0b0b0; stroke-opacity: 0.6; stroke-width: 0.5"/>
     </g>
     <g id="line2d_16">
      <g>
       <use xlink:href="#mee74c68519" x="40.603125" y="166.267731" style="stroke: #000000; stroke-width: 0.8"/>
      </g>
     </g>
     <g id="text_11">
      <!-- 8 -->
      <g transform="translate(27.240625 170.06695)scale(0.1 -0.1)">
       <defs>
        <path id="DejaVuSans-38" d="M 2034 2216 
Q 1584 2216 1326 1975 
Q 1069 1734 1069 1313 
Q 1069 891 1326 650 
Q 1584 409 2034 409 
Q 2484 409 2743 651 
Q 3003 894 3003 1313 
Q 3003 1734 2745 1975 
Q 2488 2216 2034 2216 
z
M 1403 2484 
Q 997 2584 770 2862 
Q 544 3141 544 3541 
Q 544 4100 942 4425 
Q 1341 4750 2034 4750 
Q 2731 4750 3128 4425 
Q 3525 4100 3525 3541 
Q 3525 3141 3298 2862 
Q 3072 2584 2669 2484 
Q 3125 2378 3379 2068 
Q 3634 1759 3634 1313 
Q 3634 634 3220 271 
Q 2806 -91 2034 -91 
Q 1263 -91 848 271 
Q 434 634 434 1313 
Q 434 1759 690 2068 
Q 947 2378 1403 2484 
z
M 1172 3481 
Q 1172 3119 1398 2916 
Q 1625 2713 2034 2713 
Q 2441 2713 2670 2916 
Q 2900 3119 2900 3481 
Q 2900 3844 2670 4047 
Q 2441 4250 2034 4250 
Q 1625 4250 1398 4047 
Q 1172 3844 1172 3481 
z
" transform="scale(0.015625)"/>
       </defs>
       <use xlink:href="#DejaVuSans-38"/>
      </g>
     </g>
    </g>
    <g id="ytick_6">
     <g id="line2d_17">
      <path d="M 40.603125 136.104315 
L 396.23976 136.104315 
" clip-path="url(#p45dc8baef5)" style="fill: none; stroke-dasharray: 0.5,0.825; stroke-dashoffset: 0; stroke: #b0b0b0; stroke-opacity: 0.6; stroke-width: 0.5"/>
     </g>
     <g id="line2d_18">
      <g>
       <use xlink:href="#mee74c68519" x="40.603125" y="136.104315" style="stroke: #000000; stroke-width: 0.8"/>
      </g>
     </g>
     <g id="text_12">
      <!-- 10 -->
      <g transform="translate(20.878125 139.903534)scale(0.1 -0.1)">
       <defs>
        <path id="DejaVuSans-31" d="M 794 531 
L 1825 531 
L 1825 4091 
L 703 3866 
L 703 4441 
L 1819 4666 
L 2450 4666 
L 2450 531 
L 3481 531 
L 3481 0 
L 794 0 
L 794 531 
z
" transform="scale(0.015625)"/>
       </defs>
       <use xlink:href="#DejaVuSans-31"/>
       <use xlink:href="#DejaVuSans-30" x="63.623047"/>
      </g>
     </g>
    </g>
    <g id="ytick_7">
     <g id="line2d_19">
      <path d="M 40.603125 105.940899 
L 396.23976 105.940899 
" clip-path="url(#p45dc8baef5)" style="fill: none; stroke-dasharray: 0.5,0.825; stroke-dashoffset: 0; stroke: #b0b0b0; stroke-opacity: 0.6; stroke-width: 0.5"/>
     </g>
     <g id="line2d_20">
      <g>
       <use xlink:href="#mee74c68519" x="40.603125" y="105.940899" style="stroke: #000000; stroke-width: 0.8"/>
      </g>
     </g>
     <g id="text_13">
      <!-- 12 -->
      <g transform="translate(20.878125 109.740118)scale(0.1 -0.1)">
       <use xlink:href="#DejaVuSans-31"/>
       <use xlink:href="#DejaVuSans-32" x="63.623047"/>
      </g>
     </g>
    </g>
    <g id="ytick_8">
     <g id="line2d_21">
      <path d="M 40.603125 75.777483 
L 396.23976 75.777483 
" clip-path="url(#p45dc8baef5)" style="fill: none; stroke-dasharray: 0.5,0.825; stroke-dashoffset: 0; stroke: #b0b0b0; stroke-opacity: 0.6; stroke-width: 0.5"/>
     </g>
     <g id="line2d_22">
      <g>
       <use xlink:href="#mee74c68519" x="40.603125" y="75.777483" style="stroke: #000000; stroke-width: 0.8"/>
      </g>
     </g>
     <g id="text_14">
      <!-- 14 -->
      <g transform="translate(20.878125 79.576702)scale(0.1 -0.1)">
       <use xlink:href="#DejaVuSans-31"/>
       <use xlink:href="#DejaVuSans-34" x="63.623047"/>
      </g>
     </g>
    </g>
    <g id="ytick_9">
     <g id="line2d_23">
      <path d="M 40.603125 45.614068 
L 396.23976 45.614068 
" clip-path="url(#p45dc8baef5)" style="fill: none; stroke-dasharray: 0.5,0.825; stroke-dashoffset: 0; stroke: #b0b0b0; stroke-opacity: 0.6; stroke-width: 0.5"/>
     </g>
     <g id="line2d_24">
      <g>
       <use xlink:href="#mee74c68519" x="40.603125" y="45.614068" style="stroke: #000000; stroke-width: 0.8"/>
      </g>
     </g>
     <g id="text_15">
      <!-- 16 -->
      <g transform="translate(20.878125 49.413286)scale(0.1 -0.1)">
       <use xlink:href="#DejaVuSans-31"/>
       <use xlink:href="#DejaVuSans-36" x="63.623047"/>
      </g>
     </g>
    </g>
    <g id="text_16">
     <!-- Execution time (s, median of 5) -->
     <g transform="translate(14.798437 241.557813)rotate(-90)scale(0.1 -0.1)">
      <defs>
       <path id="DejaVuSans-45" d="M 628 4666 
L 3578 4666 
L 3578 4134 
L 1259 4134 
L 1259 2753 
L 3481 2753 
L 3481 2222 
L 1259 2222 
L 1259 531 
L 3634 531 
L 3634 0 
L 628 0 
L 628 4666 
z
" transform="scale(0.015625)"/>
       <path id="DejaVuSans-78" d="M 3513 3500 
L 2247 1797 
L 3578 0 
L 2900 0 
L 1881 1375 
L 863 0 
L 184 0 
L 1544 1831 
L 300 3500 
L 978 3500 
L 1906 2253 
L 2834 3500 
L 3513 3500 
z
" transform="scale(0.015625)"/>
       <path id="DejaVuSans-75" d="M 544 1381 
L 544 3500 
L 1119 3500 
L 1119 1403 
Q 1119 906 1312 657 
Q 1506 409 1894 409 
Q 2359 409 2629 706 
Q 2900 1003 2900 1516 
L 2900 3500 
L 3475 3500 
L 3475 0 
L 2900 0 
L 2900 538 
Q 2691 219 2414 64 
Q 2138 -91 1772 -91 
Q 1169 -91 856 284 
Q 544 659 544 1381 
z
M 1991 3584 
L 1991 3584 
z
" transform="scale(0.015625)"/>
       <path id="DejaVuSans-69" d="M 603 3500 
L 1178 3500 
L 1178 0 
L 603 0 
L 603 3500 
z
M 603 4863 
L 1178 4863 
L 1178 4134 
L 603 4134 
L 603 4863 
z
" transform="scale(0.015625)"/>
       <path id="DejaVuSans-6f" d="M 1959 3097 
Q 1497 3097 1228 2736 
Q 959 2375 959 1747 
Q 959 1119 1226 758 
Q 1494 397 1959 397 
Q 2419 397 2687 759 
Q 2956 1122 2956 1747 
Q 2956 2369 2687 2733 
Q 2419 3097 1959 3097 
z
M 1959 3584 
Q 2709 3584 3137 3096 
Q 3566 2609 3566 1747 
Q 3566 888 3137 398 
Q 2709 -91 1959 -91 
Q 1206 -91 779 398 
Q 353 888 353 1747 
Q 353 2609 779 3096 
Q 1206 3584 1959 3584 
z
" transform="scale(0.015625)"/>
       <path id="DejaVuSans-20" transform="scale(0.015625)"/>
       <path id="DejaVuSans-6d" d="M 3328 2828 
Q 3544 3216 3844 3400 
Q 4144 3584 4550 3584 
Q 5097 3584 5394 3201 
Q 5691 2819 5691 2113 
L 5691 0 
L 5113 0 
L 5113 2094 
Q 5113 2597 4934 2840 
Q 4756 3084 4391 3084 
Q 3944 3084 3684 2787 
Q 3425 2491 3425 1978 
L 3425 0 
L 2847 0 
L 2847 2094 
Q 2847 2600 2669 2842 
Q 2491 3084 2119 3084 
Q 1678 3084 1418 2786 
Q 1159 2488 1159 1978 
L 1159 0 
L 581 0 
L 581 3500 
L 1159 3500 
L 1159 2956 
Q 1356 3278 1631 3431 
Q 1906 3584 2284 3584 
Q 2666 3584 2933 3390 
Q 3200 3197 3328 2828 
z
" transform="scale(0.015625)"/>
       <path id="DejaVuSans-28" d="M 1984 4856 
Q 1566 4138 1362 3434 
Q 1159 2731 1159 2009 
Q 1159 1288 1364 580 
Q 1569 -128 1984 -844 
L 1484 -844 
Q 1016 -109 783 600 
Q 550 1309 550 2009 
Q 550 2706 781 3412 
Q 1013 4119 1484 4856 
L 1984 4856 
z
" transform="scale(0.015625)"/>
       <path id="DejaVuSans-2c" d="M 750 794 
L 1409 794 
L 1409 256 
L 897 -744 
L 494 -744 
L 750 256 
L 750 794 
z
" transform="scale(0.015625)"/>
       <path id="DejaVuSans-66" d="M 2375 4863 
L 2375 4384 
L 1825 4384 
Q 1516 4384 1395 4259 
Q 1275 4134 1275 3809 
L 1275 3500 
L 2222 3500 
L 2222 3053 
L 1275 3053 
L 1275 0 
L 697 0 
L 697 3053 
L 147 3053 
L 147 3500 
L 697 3500 
L 697 3744 
Q 697 4328 969 4595 
Q 1241 4863 1831 4863 
L 2375 4863 
z
" transform="scale(0.015625)"/>
       <path id="DejaVuSans-35" d="M 691 4666 
L 3169 4666 
L 3169 4134 
L 1269 4134 
L 1269 2991 
Q 1406 3038 1543 3061 
Q 1681 3084 1819 3084 
Q 2600 3084 3056 2656 
Q 3513 2228 3513 1497 
Q 3513 744 3044 326 
Q 2575 -91 1722 -91 
Q 1428 -91 1123 -41 
Q 819 9 494 109 
L 494 744 
Q 775 591 1075 516 
Q 1375 441 1709 441 
Q 2250 441 2565 725 
Q 2881 1009 2881 1497 
Q 2881 1984 2565 2268 
Q 2250 2553 1709 2553 
Q 1456 2553 1204 2497 
Q 953 2441 691 2322 
L 691 4666 
z
" transform="scale(0.015625)"/>
       <path id="DejaVuSans-29" d="M 513 4856 
L 1013 4856 
Q 1481 4119 1714 3412 
Q 1947 2706 1947 2009 
Q 1947 1309 1714 600 
Q 1481 -109 1013 -844 
L 513 -844 
Q 928 -128 1133 580 
Q 1338 1288 1338 2009 
Q 1338 2731 1133 3434 
Q 928 4138 513 4856 
z
" transform="scale(0.015625)"/>
      </defs>
      <use xlink:href="#DejaVuSans-45"/>
      <use xlink:href="#DejaVuSans-78" x="63.183594"/>
      <use xlink:href="#DejaVuSans-65" x="119.238281"/>
      <use xlink:href="#DejaVuSans-63" x="180.761719"/>
      <use xlink:href="#DejaVuSans-75" x="235.742188"/>
      <use xlink:href="#DejaVuSans-74" x="299.121094"/>
      <use xlink:href="#DejaVuSans-69" x="338.330078"/>
      <use xlink:href="#DejaVuSans-6f" x="366.113281"/>
      <use xlink:href="#DejaVuSans-6e" x="427.294922"/>
      <use xlink:href="#DejaVuSans-20" x="490.673828"/>
      <use xlink:href="#DejaVuSans-74" x="522.460938"/>
      <use xlink:href="#DejaVuSans-69" x="561.669922"/>
      <use xlink:href="#DejaVuSans-6d" x="589.453125"/>
      <use xlink:href="#DejaVuSans-65" x="686.865234"/>
      <use xlink:href="#DejaVuSans-20" x="748.388672"/>
      <use xlink:href="#DejaVuSans-28" x="780.175781"/>
      <use xlink:href="#DejaVuSans-73" x="819.189453"/>
      <use xlink:href="#DejaVuSans-2c" x="871.289062"/>
      <use xlink:href="#DejaVuSans-20" x="903.076172"/>
      <use xlink:href="#DejaVuSans-6d" x="934.863281"/>
      <use xlink:href="#DejaVuSans-65" x="1032.275391"/>
      <use xlink:href="#DejaVuSans-64" x="1093.798828"/>
      <use xlink:href="#DejaVuSans-69" x="1157.275391"/>
      <use xlink:href="#DejaVuSans-61" x="1185.058594"/>
      <use xlink:href="#DejaVuSans-6e" x="1246.337891"/>
      <use xlink:href="#DejaVuSans-20" x="1309.716797"/>
      <use xlink:href="#DejaVuSans-6f" x="1341.503906"/>
      <use xlink:href="#DejaVuSans-66" x="1402.685547"/>
      <use xlink:href="#DejaVuSans-20" x="1437.890625"/>
      <use xlink:href="#DejaVuSans-35" x="1469.677734"/>
      <use xlink:href="#DejaVuSans-29" x="1533.300781"/>
     </g>
    </g>
   </g>
   <g id="patch_21">
    <path d="M 40.603125 286.921395 
L 40.603125 38.964542 
" style="fill: none; stroke: #000000; stroke-width: 0.8; stroke-linejoin: miter; stroke-linecap: square"/>
   </g>
   <g id="patch_22">
    <path d="M 396.23976 286.921395 
L 396.23976 38.964542 
" style="fill: none; stroke: #000000; stroke-width: 0.8; stroke-linejoin: miter; stroke-linecap: square"/>
   </g>
   <g id="patch_23">
    <path d="M 40.603125 286.921395 
L 396.23976 286.921395 
" style="fill: none; stroke: #000000; stroke-width: 0.8; stroke-linejoin: miter; stroke-linecap: square"/>
   </g>
   <g id="patch_24">
    <path d="M 40.603125 38.964542 
L 396.23976 38.964542 
" style="fill: none; stroke: #000000; stroke-width: 0.8; stroke-linejoin: miter; stroke-linecap: square"/>
   </g>
   <g id="text_17">
    <!-- Execution time — lower is better -->
    <g transform="translate(120.330817 32.964542)scale(0.12 -0.12)">
     <defs>
      <path id="DejaVuSans-2014" d="M 313 1978 
L 6088 1978 
L 6088 1528 
L 313 1528 
L 313 1978 
z
" transform="scale(0.015625)"/>
      <path id="DejaVuSans-77" d="M 269 3500 
L 844 3500 
L 1563 769 
L 2278 3500 
L 2956 3500 
L 3675 769 
L 4391 3500 
L 4966 3500 
L 4050 0 
L 3372 0 
L 2619 2869 
L 1863 0 
L 1184 0 
L 269 3500 
z
" transform="scale(0.015625)"/>
      <path id="DejaVuSans-62" d="M 3116 1747 
Q 3116 2381 2855 2742 
Q 2594 3103 2138 3103 
Q 1681 3103 1420 2742 
Q 1159 2381 1159 1747 
Q 1159 1113 1420 752 
Q 1681 391 2138 391 
Q 2594 391 2855 752 
Q 3116 1113 3116 1747 
z
M 1159 2969 
Q 1341 3281 1617 3432 
Q 1894 3584 2278 3584 
Q 2916 3584 3314 3078 
Q 3713 2572 3713 1747 
Q 3713 922 3314 415 
Q 2916 -91 2278 -91 
Q 1894 -91 1617 61 
Q 1341 213 1159 525 
L 1159 0 
L 581 0 
L 581 4863 
L 1159 4863 
L 1159 2969 
z
" transform="scale(0.015625)"/>
     </defs>
     <use xlink:href="#DejaVuSans-45"/>
     <use xlink:href="#DejaVuSans-78" x="63.183594"/>
     <use xlink:href="#DejaVuSans-65" x="119.238281"/>
     <use xlink:href="#DejaVuSans-63" x="180.761719"/>
     <use xlink:href="#DejaVuSans-75" x="235.742188"/>
     <use xlink:href="#DejaVuSans-74" x="299.121094"/>
     <use xlink:href="#DejaVuSans-69" x="338.330078"/>
     <use xlink:href="#DejaVuSans-6f" x="366.113281"/>
     <use xlink:href="#DejaVuSans-6e" x="427.294922"/>
     <use xlink:href="#DejaVuSans-20" x="490.673828"/>
     <use xlink:href="#DejaVuSans-74" x="522.460938"/>
     <use xlink:href="#DejaVuSans-69" x="561.669922"/>
     <use xlink:href="#DejaVuSans-6d" x="589.453125"/>
     <use xlink:href="#DejaVuSans-65" x="686.865234"/>
     <use xlink:href="#DejaVuSans-20" x="748.388672"/>
     <use xlink:href="#DejaVuSans-2014" x="780.175781"/>
     <use xlink:href="#DejaVuSans-20" x="880.175781"/>
     <use xlink:href="#DejaVuSans-6c" x="911.962891"/>
     <use xlink:href="#DejaVuSans-6f" x="939.746094"/>
     <use xlink:href="#DejaVuSans-77" x="1000.927734"/>
     <use xlink:href="#DejaVuSans-65" x="1082.714844"/>
     <use xlink:href="#DejaVuSans-72" x="1144.238281"/>
     <use xlink:href="#DejaVuSans-20" x="1185.351562"/>
     <use xlink:href="#DejaVuSans-69" x="1217.138672"/>
     <use xlink:href="#DejaVuSans-73" x="1244.921875"/>
     <use xlink:href="#DejaVuSans-20" x="1297.021484"/>
     <use xlink:href="#DejaVuSans-62" x="1328.808594"/>
     <use xlink:href="#DejaVuSans-65" x="1392.285156"/>
     <use xlink:href="#DejaVuSans-74" x="1453.808594"/>
     <use xlink:href="#DejaVuSans-74" x="1493.017578"/>
     <use xlink:href="#DejaVuSans-65" x="1532.226562"/>
     <use xlink:href="#DejaVuSans-72" x="1593.75"/>
    </g>
   </g>
   <g id="legend_1">
    <g id="patch_25">
     <path d="M 49.603125 55.56298 
L 69.603125 55.56298 
L 69.603125 48.56298 
L 49.603125 48.56298 
z
" style="fill: #888888"/>
    </g>
    <g id="text_18">
     <!-- interpreter -->
     <g transform="translate(77.603125 55.56298)scale(0.1 -0.1)">
      <use xlink:href="#DejaVuSans-69"/>
      <use xlink:href="#DejaVuSans-6e" x="27.783203"/>
      <use xlink:href="#DejaVuSans-74" x="91.162109"/>
      <use xlink:href="#DejaVuSans-65" x="130.371094"/>
      <use xlink:href="#DejaVuSans-72" x="191.894531"/>
      <use xlink:href="#DejaVuSans-70" x="233.007812"/>
      <use xlink:href="#DejaVuSans-72" x="296.484375"/>
      <use xlink:href="#DejaVuSans-65" x="335.347656"/>
      <use xlink:href="#DejaVuSans-74" x="396.871094"/>
      <use xlink:href="#DejaVuSans-65" x="436.080078"/>
      <use xlink:href="#DejaVuSans-72" x="497.603516"/>
     </g>
    </g>
    <g id="patch_26">
     <path d="M 49.603125 70.241105 
L 69.603125 70.241105 
L 69.603125 63.241105 
L 49.603125 63.241105 
z
" style="fill: #1f77b4"/>
    </g>
    <g id="text_19">
     <!-- compiler -->
     <g transform="translate(77.603125 70.241105)scale(0.1 -0.1)">
      <use xlink:href="#DejaVuSans-63"/>
      <use xlink:href="#DejaVuSans-6f" x="54.980469"/>
      <use xlink:href="#DejaVuSans-6d" x="116.162109"/>
      <use xlink:href="#DejaVuSans-70" x="213.574219"/>
      <use xlink:href="#DejaVuSans-69" x="277.050781"/>
      <use xlink:href="#DejaVuSans-6c" x="304.833984"/>
      <use xlink:href="#DejaVuSans-65" x="332.617188"/>
      <use xlink:href="#DejaVuSans-72" x="394.140625"/>
     </g>
    </g>
    <g id="patch_27">
     <path d="M 49.603125 84.91923 
L 69.603125 84.91923 
L 69.603125 77.91923 
L 49.603125 77.91923 
z
" style="fill: #2ca02c"/>
    </g>
    <g id="text_20">
     <!-- library -->
     <g transform="translate(77.603125 84.91923)scale(0.1 -0.1)">
      <defs>
       <path id="DejaVuSans-79" d="M 2059 -325 
Q 1816 -950 1584 -1140 
Q 1353 -1331 966 -1331 
L 506 -1331 
L 506 -850 
L 844 -850 
Q 1081 -850 1212 -737 
Q 1344 -625 1503 -206 
L 1606 56 
L 191 3500 
L 800 3500 
L 1894 763 
L 2988 3500 
L 3597 3500 
L 2059 -325 
z
" transform="scale(0.015625)"/>
      </defs>
      <use xlink:href="#DejaVuSans-6c"/>
      <use xlink:href="#DejaVuSans-69" x="27.783203"/>
      <use xlink:href="#DejaVuSans-62" x="55.566406"/>
      <use xlink:href="#DejaVuSans-72" x="119.042969"/>
      <use xlink:href="#DejaVuSans-61" x="160.15625"/>
      <use xlink:href="#DejaVuSans-72" x="221.435547"/>
      <use xlink:href="#DejaVuSans-79" x="262.548828"/>
     </g>
    </g>
   </g>
  </g>
  <g id="axes_2">
   <g id="patch_28">
    <path d="M 437.562885 286.921395 
L 793.19952 286.921395 
L 793.19952 38.964542 
L 437.562885 38.964542 
z
" style="fill: #ffffff"/>
   </g>
   <g id="patch_29">
    <path d="M 453.728187 286.921395 
L 468.752735 286.921395 
L 468.752735 239.00603 
L 453.728187 239.00603 
z
" clip-path="url(#p0a2e55e9e1)" style="fill: #888888"/>
   </g>
   <g id="patch_30">
    <path d="M 509.374664 286.921395 
L 524.399212 286.921395 
L 524.399212 226.172218 
L 509.374664 226.172218 
z
" clip-path="url(#p0a2e55e9e1)" style="fill: #888888"/>
   </g>
   <g id="patch_31">
    <path d="M 565.021141 286.921395 
L 580.04569 286.921395 
L 580.04569 161.093991 
L 565.021141 161.093991 
z
" clip-path="url(#p0a2e55e9e1)" style="fill: #888888"/>
   </g>
   <g id="patch_32">
    <path d="M 620.667618 286.921395 
L 635.692167 286.921395 
L 635.692167 277.372233 
L 620.667618 277.372233 
z
" clip-path="url(#p0a2e55e9e1)" style="fill: #888888"/>
   </g>
   <g id="patch_33">
    <path d="M 676.314095 286.921395 
L 691.338644 286.921395 
L 691.338644 200.045682 
L 676.314095 200.045682 
z
" clip-path="url(#p0a2e55e9e1)" style="fill: #888888"/>
   </g>
   <g id="patch_34">
    <path d="M 731.960572 286.921395 
L 746.985121 286.921395 
L 746.985121 50.772012 
L 731.960572 50.772012 
z
" clip-path="url(#p0a2e55e9e1)" style="fill: #888888"/>
   </g>
   <g id="patch_35">
    <path d="M 468.752735 286.921395 
L 483.777284 286.921395 
L 483.777284 257.120251 
L 468.752735 257.120251 
z
" clip-path="url(#p0a2e55e9e1)" style="fill: #1f77b4"/>
   </g>
   <g id="patch_36">
    <path d="M 524.399212 286.921395 
L 539.423761 286.921395 
L 539.423761 229.388071 
L 524.399212 229.388071 
z
" clip-path="url(#p0a2e55e9e1)" style="fill: #1f77b4"/>
   </g>
   <g id="patch_37">
    <path d="M 580.04569 286.921395 
L 595.070238 286.921395 
L 595.070238 156.811541 
L 580.04569 156.811541 
z
" clip-path="url(#p0a2e55e9e1)" style="fill: #1f77b4"/>
   </g>
   <g id="patch_38">
    <path d="M 635.692167 286.921395 
L 650.716715 286.921395 
L 650.716715 276.444174 
L 635.692167 276.444174 
z
" clip-path="url(#p0a2e55e9e1)" style="fill: #1f77b4"/>
   </g>
   <g id="patch_39">
    <path d="M 691.338644 286.921395 
L 706.363193 286.921395 
L 706.363193 190.081687 
L 691.338644 190.081687 
z
" clip-path="url(#p0a2e55e9e1)" style="fill: #1f77b4"/>
   </g>
   <g id="patch_40">
    <path d="M 746.985121 286.921395 
L 762.00967 286.921395 
L 762.00967 75.279838 
L 746.985121 75.279838 
z
" clip-path="url(#p0a2e55e9e1)" style="fill: #1f77b4"/>
   </g>
   <g id="patch_41">
    <path d="M 483.777284 286.921395 
L 498.801833 286.921395 
L 498.801833 257.683226 
L 483.777284 257.683226 
z
" clip-path="url(#p0a2e55e9e1)" style="fill: #2ca02c"/>
   </g>
   <g id="patch_42">
    <path d="M 539.423761 286.921395 
L 554.44831 286.921395 
L 554.44831 229.794244 
L 539.423761 229.794244 
z
" clip-path="url(#p0a2e55e9e1)" style="fill: #2ca02c"/>
   </g>
   <g id="patch_43">
    <path d="M 595.070238 286.921395 
L 610.094787 286.921395 
L 610.094787 158.89798 
L 595.070238 158.89798 
z
" clip-path="url(#p0a2e55e9e1)" style="fill: #2ca02c"/>
   </g>
   <g id="patch_44">
    <path d="M 650.716715 286.921395 
L 665.741264 286.921395 
L 665.741264 276.562405 
L 650.716715 276.562405 
z
" clip-path="url(#p0a2e55e9e1)" style="fill: #2ca02c"/>
   </g>
   <g id="patch_45">
    <path d="M 706.363193 286.921395 
L 721.387741 286.921395 
L 721.387741 189.434802 
L 706.363193 189.434802 
z
" clip-path="url(#p0a2e55e9e1)" style="fill: #2ca02c"/>
   </g>
   <g id="patch_46">
    <path d="M 762.00967 286.921395 
L 777.034218 286.921395 
L 777.034218 75.398384 
L 762.00967 75.398384 
z
" clip-path="url(#p0a2e55e9e1)" style="fill: #2ca02c"/>
   </g>
   <g id="matplotlib.axis_3">
    <g id="xtick_7">
     <g id="line2d_25">
      <g>
       <use xlink:href="#m5328c67727" x="476.26501" y="286.921395" style="stroke: #000000; stroke-width: 0.8"/>
      </g>
     </g>
     <g id="text_21">
      <!-- tc -->
      <g transform="translate(471.555635 301.519833)scale(0.1 -0.1)">
       <use xlink:href="#DejaVuSans-74"/>
       <use xlink:href="#DejaVuSans-63" x="39.208984"/>
      </g>
     </g>
    </g>
    <g id="xtick_8">
     <g id="line2d_26">
      <g>
       <use xlink:href="#m5328c67727" x="531.911487" y="286.921395" style="stroke: #000000; stroke-width: 0.8"/>
      </g>
     </g>
     <g id="text_22">
      <!-- sg -->
      <g transform="translate(526.132581 301.519833)scale(0.1 -0.1)">
       <use xlink:href="#DejaVuSans-73"/>
       <use xlink:href="#DejaVuSans-67" x="52.099609"/>
      </g>
     </g>
    </g>
    <g id="xtick_9">
     <g id="line2d_27">
      <g>
       <use xlink:href="#m5328c67727" x="587.557964" y="286.921395" style="stroke: #000000; stroke-width: 0.8"/>
      </g>
     </g>
     <g id="text_23">
      <!-- cc -->
      <g transform="translate(582.059526 301.519833)scale(0.1 -0.1)">
       <use xlink:href="#DejaVuSans-63"/>
       <use xlink:href="#DejaVuSans-63" x="54.980469"/>
      </g>
     </g>
    </g>
    <g id="xtick_10">
     <g id="line2d_28">
      <g>
       <use xlink:href="#m5328c67727" x="643.204441" y="286.921395" style="stroke: #000000; stroke-width: 0.8"/>
      </g>
     </g>
     <g id="text_24">
      <!-- crdt -->
      <g transform="translate(633.352879 301.519833)scale(0.1 -0.1)">
       <use xlink:href="#DejaVuSans-63"/>
       <use xlink:href="#DejaVuSans-72" x="54.980469"/>
       <use xlink:href="#DejaVuSans-64" x="94.34375"/>
       <use xlink:href="#DejaVuSans-74" x="157.820312"/>
      </g>
     </g>
    </g>
    <g id="xtick_11">
     <g id="line2d_29">
      <g>
       <use xlink:href="#m5328c67727" x="698.850918" y="286.921395" style="stroke: #000000; stroke-width: 0.8"/>
      </g>
     </g>
     <g id="text_25">
      <!-- galen -->
      <g transform="translate(684.978262 301.519833)scale(0.1 -0.1)">
       <use xlink:href="#DejaVuSans-67"/>
       <use xlink:href="#DejaVuSans-61" x="63.476562"/>
       <use xlink:href="#DejaVuSans-6c" x="124.755859"/>
       <use xlink:href="#DejaVuSans-65" x="152.539062"/>
       <use xlink:href="#DejaVuSans-6e" x="214.0625"/>
      </g>
     </g>
    </g>
    <g id="xtick_12">
     <g id="line2d_30">
      <g>
       <use xlink:href="#m5328c67727" x="754.497395" y="286.921395" style="stroke: #000000; stroke-width: 0.8"/>
      </g>
     </g>
     <g id="text_26">
      <!-- cspa -->
      <g transform="translate(742.905208 301.519833)scale(0.1 -0.1)">
       <use xlink:href="#DejaVuSans-63"/>
       <use xlink:href="#DejaVuSans-73" x="54.980469"/>
       <use xlink:href="#DejaVuSans-70" x="107.080078"/>
       <use xlink:href="#DejaVuSans-61" x="170.556641"/>
      </g>
     </g>
    </g>
   </g>
   <g id="matplotlib.axis_4">
    <g id="ytick_10">
     <g id="line2d_31">
      <path d="M 437.562885 286.921395 
L 793.19952 286.921395 
" clip-path="url(#p0a2e55e9e1)" style="fill: none; stroke-dasharray: 0.5,0.825; stroke-dashoffset: 0; stroke: #b0b0b0; stroke-opacity: 0.6; stroke-width: 0.5"/>
     </g>
     <g id="line2d_32">
      <g>
       <use xlink:href="#mee74c68519" x="437.562885" y="286.921395" style="stroke: #000000; stroke-width: 0.8"/>
      </g>
     </g>
     <g id="text_27">
      <!-- 0 -->
      <g transform="translate(424.200385 290.720614)scale(0.1 -0.1)">
       <use xlink:href="#DejaVuSans-30"/>
      </g>
     </g>
    </g>
    <g id="ytick_11">
     <g id="line2d_33">
      <path d="M 437.562885 254.679433 
L 793.19952 254.679433 
" clip-path="url(#p0a2e55e9e1)" style="fill: none; stroke-dasharray: 0.5,0.825; stroke-dashoffset: 0; stroke: #b0b0b0; stroke-opacity: 0.6; stroke-width: 0.5"/>
     </g>
     <g id="line2d_34">
      <g>
       <use xlink:href="#mee74c68519" x="437.562885" y="254.679433" style="stroke: #000000; stroke-width: 0.8"/>
      </g>
     </g>
     <g id="text_28">
      <!-- 2 -->
      <g transform="translate(424.200385 258.478652)scale(0.1 -0.1)">
       <use xlink:href="#DejaVuSans-32"/>
      </g>
     </g>
    </g>
    <g id="ytick_12">
     <g id="line2d_35">
      <path d="M 437.562885 222.437472 
L 793.19952 222.437472 
" clip-path="url(#p0a2e55e9e1)" style="fill: none; stroke-dasharray: 0.5,0.825; stroke-dashoffset: 0; stroke: #b0b0b0; stroke-opacity: 0.6; stroke-width: 0.5"/>
     </g>
     <g id="line2d_36">
      <g>
       <use xlink:href="#mee74c68519" x="437.562885" y="222.437472" style="stroke: #000000; stroke-width: 0.8"/>
      </g>
     </g>
     <g id="text_29">
      <!-- 4 -->
      <g transform="translate(424.200385 226.236691)scale(0.1 -0.1)">
       <use xlink:href="#DejaVuSans-34"/>
      </g>
     </g>
    </g>
    <g id="ytick_13">
     <g id="line2d_37">
      <path d="M 437.562885 190.19551 
L 793.19952 190.19551 
" clip-path="url(#p0a2e55e9e1)" style="fill: none; stroke-dasharray: 0.5,0.825; stroke-dashoffset: 0; stroke: #b0b0b0; stroke-opacity: 0.6; stroke-width: 0.5"/>
     </g>
     <g id="line2d_38">
      <g>
       <use xlink:href="#mee74c68519" x="437.562885" y="190.19551" style="stroke: #000000; stroke-width: 0.8"/>
      </g>
     </g>
     <g id="text_30">
      <!-- 6 -->
      <g transform="translate(424.200385 193.994729)scale(0.1 -0.1)">
       <use xlink:href="#DejaVuSans-36"/>
      </g>
     </g>
    </g>
    <g id="ytick_14">
     <g id="line2d_39">
      <path d="M 437.562885 157.953549 
L 793.19952 157.953549 
" clip-path="url(#p0a2e55e9e1)" style="fill: none; stroke-dasharray: 0.5,0.825; stroke-dashoffset: 0; stroke: #b0b0b0; stroke-opacity: 0.6; stroke-width: 0.5"/>
     </g>
     <g id="line2d_40">
      <g>
       <use xlink:href="#mee74c68519" x="437.562885" y="157.953549" style="stroke: #000000; stroke-width: 0.8"/>
      </g>
     </g>
     <g id="text_31">
      <!-- 8 -->
      <g transform="translate(424.200385 161.752768)scale(0.1 -0.1)">
       <use xlink:href="#DejaVuSans-38"/>
      </g>
     </g>
    </g>
    <g id="ytick_15">
     <g id="line2d_41">
      <path d="M 437.562885 125.711587 
L 793.19952 125.711587 
" clip-path="url(#p0a2e55e9e1)" style="fill: none; stroke-dasharray: 0.5,0.825; stroke-dashoffset: 0; stroke: #b0b0b0; stroke-opacity: 0.6; stroke-width: 0.5"/>
     </g>
     <g id="line2d_42">
      <g>
       <use xlink:href="#mee74c68519" x="437.562885" y="125.711587" style="stroke: #000000; stroke-width: 0.8"/>
      </g>
     </g>
     <g id="text_32">
      <!-- 10 -->
      <g transform="translate(417.837885 129.510806)scale(0.1 -0.1)">
       <use xlink:href="#DejaVuSans-31"/>
       <use xlink:href="#DejaVuSans-30" x="63.623047"/>
      </g>
     </g>
    </g>
    <g id="ytick_16">
     <g id="line2d_43">
      <path d="M 437.562885 93.469626 
L 793.19952 93.469626 
" clip-path="url(#p0a2e55e9e1)" style="fill: none; stroke-dasharray: 0.5,0.825; stroke-dashoffset: 0; stroke: #b0b0b0; stroke-opacity: 0.6; stroke-width: 0.5"/>
     </g>
     <g id="line2d_44">
      <g>
       <use xlink:href="#mee74c68519" x="437.562885" y="93.469626" style="stroke: #000000; stroke-width: 0.8"/>
      </g>
     </g>
     <g id="text_33">
      <!-- 12 -->
      <g transform="translate(417.837885 97.268844)scale(0.1 -0.1)">
       <use xlink:href="#DejaVuSans-31"/>
       <use xlink:href="#DejaVuSans-32" x="63.623047"/>
      </g>
     </g>
    </g>
    <g id="ytick_17">
     <g id="line2d_45">
      <path d="M 437.562885 61.227664 
L 793.19952 61.227664 
" clip-path="url(#p0a2e55e9e1)" style="fill: none; stroke-dasharray: 0.5,0.825; stroke-dashoffset: 0; stroke: #b0b0b0; stroke-opacity: 0.6; stroke-width: 0.5"/>
     </g>
     <g id="line2d_46">
      <g>
       <use xlink:href="#mee74c68519" x="437.562885" y="61.227664" style="stroke: #000000; stroke-width: 0.8"/>
      </g>
     </g>
     <g id="text_34">
      <!-- 14 -->
      <g transform="translate(417.837885 65.026883)scale(0.1 -0.1)">
       <use xlink:href="#DejaVuSans-31"/>
       <use xlink:href="#DejaVuSans-34" x="63.623047"/>
      </g>
     </g>
    </g>
    <g id="text_35">
     <!-- Peak RSS (GiB, median of 5) -->
     <g transform="translate(411.758197 233.508594)rotate(-90)scale(0.1 -0.1)">
      <defs>
       <path id="DejaVuSans-50" d="M 1259 4147 
L 1259 2394 
L 2053 2394 
Q 2494 2394 2734 2622 
Q 2975 2850 2975 3272 
Q 2975 3691 2734 3919 
Q 2494 4147 2053 4147 
L 1259 4147 
z
M 628 4666 
L 2053 4666 
Q 2838 4666 3239 4311 
Q 3641 3956 3641 3272 
Q 3641 2581 3239 2228 
Q 2838 1875 2053 1875 
L 1259 1875 
L 1259 0 
L 628 0 
L 628 4666 
z
" transform="scale(0.015625)"/>
       <path id="DejaVuSans-6b" d="M 581 4863 
L 1159 4863 
L 1159 1991 
L 2875 3500 
L 3609 3500 
L 1753 1863 
L 3688 0 
L 2938 0 
L 1159 1709 
L 1159 0 
L 581 0 
L 581 4863 
z
" transform="scale(0.015625)"/>
       <path id="DejaVuSans-52" d="M 2841 2188 
Q 3044 2119 3236 1894 
Q 3428 1669 3622 1275 
L 4263 0 
L 3584 0 
L 2988 1197 
Q 2756 1666 2539 1819 
Q 2322 1972 1947 1972 
L 1259 1972 
L 1259 0 
L 628 0 
L 628 4666 
L 2053 4666 
Q 2853 4666 3247 4331 
Q 3641 3997 3641 3322 
Q 3641 2881 3436 2590 
Q 3231 2300 2841 2188 
z
M 1259 4147 
L 1259 2491 
L 2053 2491 
Q 2509 2491 2742 2702 
Q 2975 2913 2975 3322 
Q 2975 3731 2742 3939 
Q 2509 4147 2053 4147 
L 1259 4147 
z
" transform="scale(0.015625)"/>
       <path id="DejaVuSans-53" d="M 3425 4513 
L 3425 3897 
Q 3066 4069 2747 4153 
Q 2428 4238 2131 4238 
Q 1616 4238 1336 4038 
Q 1056 3838 1056 3469 
Q 1056 3159 1242 3001 
Q 1428 2844 1947 2747 
L 2328 2669 
Q 3034 2534 3370 2195 
Q 3706 1856 3706 1288 
Q 3706 609 3251 259 
Q 2797 -91 1919 -91 
Q 1588 -91 1214 -16 
Q 841 59 441 206 
L 441 856 
Q 825 641 1194 531 
Q 1563 422 1919 422 
Q 2459 422 2753 634 
Q 3047 847 3047 1241 
Q 3047 1584 2836 1778 
Q 2625 1972 2144 2069 
L 1759 2144 
Q 1053 2284 737 2584 
Q 422 2884 422 3419 
Q 422 4038 858 4394 
Q 1294 4750 2059 4750 
Q 2388 4750 2728 4690 
Q 3069 4631 3425 4513 
z
" transform="scale(0.015625)"/>
       <path id="DejaVuSans-47" d="M 3809 666 
L 3809 1919 
L 2778 1919 
L 2778 2438 
L 4434 2438 
L 4434 434 
Q 4069 175 3628 42 
Q 3188 -91 2688 -91 
Q 1594 -91 976 548 
Q 359 1188 359 2328 
Q 359 3472 976 4111 
Q 1594 4750 2688 4750 
Q 3144 4750 3555 4637 
Q 3966 4525 4313 4306 
L 4313 3634 
Q 3963 3931 3569 4081 
Q 3175 4231 2741 4231 
Q 1884 4231 1454 3753 
Q 1025 3275 1025 2328 
Q 1025 1384 1454 906 
Q 1884 428 2741 428 
Q 3075 428 3337 486 
Q 3600 544 3809 666 
z
" transform="scale(0.015625)"/>
       <path id="DejaVuSans-42" d="M 1259 2228 
L 1259 519 
L 2272 519 
Q 2781 519 3026 730 
Q 3272 941 3272 1375 
Q 3272 1813 3026 2020 
Q 2781 2228 2272 2228 
L 1259 2228 
z
M 1259 4147 
L 1259 2741 
L 2194 2741 
Q 2656 2741 2882 2914 
Q 3109 3088 3109 3444 
Q 3109 3797 2882 3972 
Q 2656 4147 2194 4147 
L 1259 4147 
z
M 628 4666 
L 2241 4666 
Q 2963 4666 3353 4366 
Q 3744 4066 3744 3513 
Q 3744 3084 3544 2831 
Q 3344 2578 2956 2516 
Q 3422 2416 3680 2098 
Q 3938 1781 3938 1306 
Q 3938 681 3513 340 
Q 3088 0 2303 0 
L 628 0 
L 628 4666 
z
" transform="scale(0.015625)"/>
      </defs>
      <use xlink:href="#DejaVuSans-50"/>
      <use xlink:href="#DejaVuSans-65" x="56.677734"/>
      <use xlink:href="#DejaVuSans-61" x="118.201172"/>
      <use xlink:href="#DejaVuSans-6b" x="179.480469"/>
      <use xlink:href="#DejaVuSans-20" x="237.390625"/>
      <use xlink:href="#DejaVuSans-52" x="269.177734"/>
      <use xlink:href="#DejaVuSans-53" x="338.660156"/>
      <use xlink:href="#DejaVuSans-53" x="402.136719"/>
      <use xlink:href="#DejaVuSans-20" x="465.613281"/>
      <use xlink:href="#DejaVuSans-28" x="497.400391"/>
      <use xlink:href="#DejaVuSans-47" x="536.414062"/>
      <use xlink:href="#DejaVuSans-69" x="613.904297"/>
      <use xlink:href="#DejaVuSans-42" x="641.6875"/>
      <use xlink:href="#DejaVuSans-2c" x="710.291016"/>
      <use xlink:href="#DejaVuSans-20" x="742.078125"/>
      <use xlink:href="#DejaVuSans-6d" x="773.865234"/>
      <use xlink:href="#DejaVuSans-65" x="871.277344"/>
      <use xlink:href="#DejaVuSans-64" x="932.800781"/>
      <use xlink:href="#DejaVuSans-69" x="996.277344"/>
      <use xlink:href="#DejaVuSans-61" x="1024.060547"/>
      <use xlink:href="#DejaVuSans-6e" x="1085.339844"/>
      <use xlink:href="#DejaVuSans-20" x="1148.71875"/>
      <use xlink:href="#DejaVuSans-6f" x="1180.505859"/>
      <use xlink:href="#DejaVuSans-66" x="1241.6875"/>
      <use xlink:href="#DejaVuSans-20" x="1276.892578"/>
      <use xlink:href="#DejaVuSans-35" x="1308.679688"/>
      <use xlink:href="#DejaVuSans-29" x="1372.302734"/>
     </g>
    </g>
   </g>
   <g id="patch_47">
    <path d="M 437.562885 286.921395 
L 437.562885 38.964542 
" style="fill: none; stroke: #000000; stroke-width: 0.8; stroke-linejoin: miter; stroke-linecap: square"/>
   </g>
   <g id="patch_48">
    <path d="M 793.19952 286.921395 
L 793.19952 38.964542 
" style="fill: none; stroke: #000000; stroke-width: 0.8; stroke-linejoin: miter; stroke-linecap: square"/>
   </g>
   <g id="patch_49">
    <path d="M 437.562885 286.921395 
L 793.19952 286.921395 
" style="fill: none; stroke: #000000; stroke-width: 0.8; stroke-linejoin: miter; stroke-linecap: square"/>
   </g>
   <g id="patch_50">
    <path d="M 437.562885 38.964542 
L 793.19952 38.964542 
" style="fill: none; stroke: #000000; stroke-width: 0.8; stroke-linejoin: miter; stroke-linecap: square"/>
   </g>
   <g id="text_36">
    <!-- Peak memory — lower is better -->
    <g transform="translate(520.974015 32.964542)scale(0.12 -0.12)">
     <use xlink:href="#DejaVuSans-50"/>
     <use xlink:href="#DejaVuSans-65" x="56.677734"/>
     <use xlink:href="#DejaVuSans-61" x="118.201172"/>
     <use xlink:href="#DejaVuSans-6b" x="179.480469"/>
     <use xlink:href="#DejaVuSans-20" x="237.390625"/>
     <use xlink:href="#DejaVuSans-6d" x="269.177734"/>
     <use xlink:href="#DejaVuSans-65" x="366.589844"/>
     <use xlink:href="#DejaVuSans-6d" x="428.113281"/>
     <use xlink:href="#DejaVuSans-6f" x="525.525391"/>
     <use xlink:href="#DejaVuSans-72" x="586.707031"/>
     <use xlink:href="#DejaVuSans-79" x="627.820312"/>
     <use xlink:href="#DejaVuSans-20" x="687"/>
     <use xlink:href="#DejaVuSans-2014" x="718.787109"/>
     <use xlink:href="#DejaVuSans-20" x="818.787109"/>
     <use xlink:href="#DejaVuSans-6c" x="850.574219"/>
     <use xlink:href="#DejaVuSans-6f" x="878.357422"/>
     <use xlink:href="#DejaVuSans-77" x="939.539062"/>
     <use xlink:href="#DejaVuSans-65" x="1021.326172"/>
     <use xlink:href="#DejaVuSans-72" x="1082.849609"/>
     <use xlink:href="#DejaVuSans-20" x="1123.962891"/>
     <use xlink:href="#DejaVuSans-69" x="1155.75"/>
     <use xlink:href="#DejaVuSans-73" x="1183.533203"/>
     <use xlink:href="#DejaVuSans-20" x="1235.632812"/>
     <use xlink:href="#DejaVuSans-62" x="1267.419922"/>
     <use xlink:href="#DejaVuSans-65" x="1330.896484"/>
     <use xlink:href="#DejaVuSans-74" x="1392.419922"/>
     <use xlink:href="#DejaVuSans-74" x="1431.628906"/>
     <use xlink:href="#DejaVuSans-65" x="1470.837891"/>
     <use xlink:href="#DejaVuSans-72" x="1532.361328"/>
    </g>
   </g>
   <g id="legend_2">
    <g id="patch_51">
     <path d="M 446.562885 55.56298 
L 466.562885 55.56298 
L 466.562885 48.56298 
L 446.562885 48.56298 
z
" style="fill: #888888"/>
    </g>
    <g id="text_37">
     <!-- interpreter -->
     <g transform="translate(474.562885 55.56298)scale(0.1 -0.1)">
      <use xlink:href="#DejaVuSans-69"/>
      <use xlink:href="#DejaVuSans-6e" x="27.783203"/>
      <use xlink:href="#DejaVuSans-74" x="91.162109"/>
      <use xlink:href="#DejaVuSans-65" x="130.371094"/>
      <use xlink:href="#DejaVuSans-72" x="191.894531"/>
      <use xlink:href="#DejaVuSans-70" x="233.007812"/>
      <use xlink:href="#DejaVuSans-72" x="296.484375"/>
      <use xlink:href="#DejaVuSans-65" x="335.347656"/>
      <use xlink:href="#DejaVuSans-74" x="396.871094"/>
      <use xlink:href="#DejaVuSans-65" x="436.080078"/>
      <use xlink:href="#DejaVuSans-72" x="497.603516"/>
     </g>
    </g>
    <g id="patch_52">
     <path d="M 446.562885 70.241105 
L 466.562885 70.241105 
L 466.562885 63.241105 
L 446.562885 63.241105 
z
" style="fill: #1f77b4"/>
    </g>
    <g id="text_38">
     <!-- compiler -->
     <g transform="translate(474.562885 70.241105)scale(0.1 -0.1)">
      <use xlink:href="#DejaVuSans-63"/>
      <use xlink:href="#DejaVuSans-6f" x="54.980469"/>
      <use xlink:href="#DejaVuSans-6d" x="116.162109"/>
      <use xlink:href="#DejaVuSans-70" x="213.574219"/>
      <use xlink:href="#DejaVuSans-69" x="277.050781"/>
      <use xlink:href="#DejaVuSans-6c" x="304.833984"/>
      <use xlink:href="#DejaVuSans-65" x="332.617188"/>
      <use xlink:href="#DejaVuSans-72" x="394.140625"/>
     </g>
    </g>
    <g id="patch_53">
     <path d="M 446.562885 84.91923 
L 466.562885 84.91923 
L 466.562885 77.91923 
L 446.562885 77.91923 
z
" style="fill: #2ca02c"/>
    </g>
    <g id="text_39">
     <!-- library -->
     <g transform="translate(474.562885 84.91923)scale(0.1 -0.1)">
      <use xlink:href="#DejaVuSans-6c"/>
      <use xlink:href="#DejaVuSans-69" x="27.783203"/>
      <use xlink:href="#DejaVuSans-62" x="55.566406"/>
      <use xlink:href="#DejaVuSans-72" x="119.042969"/>
      <use xlink:href="#DejaVuSans-61" x="160.15625"/>
      <use xlink:href="#DejaVuSans-72" x="221.435547"/>
      <use xlink:href="#DejaVuSans-79" x="262.548828"/>
     </g>
    </g>
   </g>
  </g>
  <g id="text_40">
   <!-- FlowLog benchmark snapshot — 6 (program, dataset) pairs, WORKERS=64 -->
   <g transform="translate(193.541557 15.558281)scale(0.11 -0.11)">
    <defs>
     <path id="DejaVuSans-46" d="M 628 4666 
L 3309 4666 
L 3309 4134 
L 1259 4134 
L 1259 2759 
L 3109 2759 
L 3109 2228 
L 1259 2228 
L 1259 0 
L 628 0 
L 628 4666 
z
" transform="scale(0.015625)"/>
     <path id="DejaVuSans-4c" d="M 628 4666 
L 1259 4666 
L 1259 531 
L 3531 531 
L 3531 0 
L 628 0 
L 628 4666 
z
" transform="scale(0.015625)"/>
     <path id="DejaVuSans-68" d="M 3513 2113 
L 3513 0 
L 2938 0 
L 2938 2094 
Q 2938 2591 2744 2837 
Q 2550 3084 2163 3084 
Q 1697 3084 1428 2787 
Q 1159 2491 1159 1978 
L 1159 0 
L 581 0 
L 581 4863 
L 1159 4863 
L 1159 2956 
Q 1366 3272 1645 3428 
Q 1925 3584 2291 3584 
Q 2894 3584 3203 3211 
Q 3513 2838 3513 2113 
z
" transform="scale(0.015625)"/>
     <path id="DejaVuSans-57" d="M 213 4666 
L 850 4666 
L 1831 722 
L 2809 4666 
L 3519 4666 
L 4500 722 
L 5478 4666 
L 6119 4666 
L 4947 0 
L 4153 0 
L 3169 4050 
L 2175 0 
L 1381 0 
L 213 4666 
z
" transform="scale(0.015625)"/>
     <path id="DejaVuSans-4f" d="M 2522 4238 
Q 1834 4238 1429 3725 
Q 1025 3213 1025 2328 
Q 1025 1447 1429 934 
Q 1834 422 2522 422 
Q 3209 422 3611 934 
Q 4013 1447 4013 2328 
Q 4013 3213 3611 3725 
Q 3209 4238 2522 4238 
z
M 2522 4750 
Q 3503 4750 4090 4092 
Q 4678 3434 4678 2328 
Q 4678 1225 4090 567 
Q 3503 -91 2522 -91 
Q 1538 -91 948 565 
Q 359 1222 359 2328 
Q 359 3434 948 4092 
Q 1538 4750 2522 4750 
z
" transform="scale(0.015625)"/>
     <path id="DejaVuSans-4b" d="M 628 4666 
L 1259 4666 
L 1259 2694 
L 3353 4666 
L 4166 4666 
L 1850 2491 
L 4331 0 
L 3500 0 
L 1259 2247 
L 1259 0 
L 628 0 
L 628 4666 
z
" transform="scale(0.015625)"/>
     <path id="DejaVuSans-3d" d="M 678 2906 
L 4684 2906 
L 4684 2381 
L 678 2381 
L 678 2906 
z
M 678 1631 
L 4684 1631 
L 4684 1100 
L 678 1100 
L 678 1631 
z
" transform="scale(0.015625)"/>
    </defs>
    <use xlink:href="#DejaVuSans-46"/>
    <use xlink:href="#DejaVuSans-6c" x="57.519531"/>
    <use xlink:href="#DejaVuSans-6f" x="85.302734"/>
    <use xlink:href="#DejaVuSans-77" x="146.484375"/>
    <use xlink:href="#DejaVuSans-4c" x="228.271484"/>
    <use xlink:href="#DejaVuSans-6f" x="282.234375"/>
    <use xlink:href="#DejaVuSans-67" x="343.416016"/>
    <use xlink:href="#DejaVuSans-20" x="406.892578"/>
    <use xlink:href="#DejaVuSans-62" x="438.679688"/>
    <use xlink:href="#DejaVuSans-65" x="502.15625"/>
    <use xlink:href="#DejaVuSans-6e" x="563.679688"/>
    <use xlink:href="#DejaVuSans-63" x="627.058594"/>
    <use xlink:href="#DejaVuSans-68" x="682.039062"/>
    <use xlink:href="#DejaVuSans-6d" x="745.417969"/>
    <use xlink:href="#DejaVuSans-61" x="842.830078"/>
    <use xlink:href="#DejaVuSans-72" x="904.109375"/>
    <use xlink:href="#DejaVuSans-6b" x="945.222656"/>
    <use xlink:href="#DejaVuSans-20" x="1003.132812"/>
    <use xlink:href="#DejaVuSans-73" x="1034.919922"/>
    <use xlink:href="#DejaVuSans-6e" x="1087.019531"/>
    <use xlink:href="#DejaVuSans-61" x="1150.398438"/>
    <use xlink:href="#DejaVuSans-70" x="1211.677734"/>
    <use xlink:href="#DejaVuSans-73" x="1275.154297"/>
    <use xlink:href="#DejaVuSans-68" x="1327.253906"/>
    <use xlink:href="#DejaVuSans-6f" x="1390.632812"/>
    <use xlink:href="#DejaVuSans-74" x="1451.814453"/>
    <use xlink:href="#DejaVuSans-20" x="1491.023438"/>
    <use xlink:href="#DejaVuSans-2014" x="1522.810547"/>
    <use xlink:href="#DejaVuSans-20" x="1622.810547"/>
    <use xlink:href="#DejaVuSans-36" x="1654.597656"/>
    <use xlink:href="#DejaVuSans-20" x="1718.220703"/>
    <use xlink:href="#DejaVuSans-28" x="1750.007812"/>
    <use xlink:href="#DejaVuSans-70" x="1789.021484"/>
    <use xlink:href="#DejaVuSans-72" x="1852.498047"/>
    <use xlink:href="#DejaVuSans-6f" x="1891.361328"/>
    <use xlink:href="#DejaVuSans-67" x="1952.542969"/>
    <use xlink:href="#DejaVuSans-72" x="2016.019531"/>
    <use xlink:href="#DejaVuSans-61" x="2057.132812"/>
    <use xlink:href="#DejaVuSans-6d" x="2118.412109"/>
    <use xlink:href="#DejaVuSans-2c" x="2215.824219"/>
    <use xlink:href="#DejaVuSans-20" x="2247.611328"/>
    <use xlink:href="#DejaVuSans-64" x="2279.398438"/>
    <use xlink:href="#DejaVuSans-61" x="2342.875"/>
    <use xlink:href="#DejaVuSans-74" x="2404.154297"/>
    <use xlink:href="#DejaVuSans-61" x="2443.363281"/>
    <use xlink:href="#DejaVuSans-73" x="2504.642578"/>
    <use xlink:href="#DejaVuSans-65" x="2556.742188"/>
    <use xlink:href="#DejaVuSans-74" x="2618.265625"/>
    <use xlink:href="#DejaVuSans-29" x="2657.474609"/>
    <use xlink:href="#DejaVuSans-20" x="2696.488281"/>
    <use xlink:href="#DejaVuSans-70" x="2728.275391"/>
    <use xlink:href="#DejaVuSans-61" x="2791.751953"/>
    <use xlink:href="#DejaVuSans-69" x="2853.03125"/>
    <use xlink:href="#DejaVuSans-72" x="2880.814453"/>
    <use xlink:href="#DejaVuSans-73" x="2921.927734"/>
    <use xlink:href="#DejaVuSans-2c" x="2974.027344"/>
    <use xlink:href="#DejaVuSans-20" x="3005.814453"/>
    <use xlink:href="#DejaVuSans-57" x="3037.601562"/>
    <use xlink:href="#DejaVuSans-4f" x="3136.478516"/>
    <use xlink:href="#DejaVuSans-52" x="3215.189453"/>
    <use xlink:href="#DejaVuSans-4b" x="3284.671875"/>
    <use xlink:href="#DejaVuSans-45" x="3350.248047"/>
    <use xlink:href="#DejaVuSans-52" x="3413.431641"/>
    <use xlink:href="#DejaVuSans-53" x="3482.914062"/>
    <use xlink:href="#DejaVuSans-3d" x="3546.390625"/>
    <use xlink:href="#DejaVuSans-36" x="3630.179688"/>
    <use xlink:href="#DejaVuSans-34" x="3693.802734"/>
   </g>
  </g>
 </g>
 <defs>
  <clipPath id="p45dc8baef5">
   <rect x="40.603125" y="38.964542" width="355.636635" height="247.956853"/>
  </clipPath>
  <clipPath id="p0a2e55e9e1">
   <rect x="437.562885" y="38.964542" width="355.636635" height="247.956853"/>
  </clipPath>
 </defs>
</svg>
